<svg width="100" height="100" viewBox="0 0 100 100" xmlns="http://www.w3.org/2000/svg">
  <!-- Cat body -->
  <ellipse cx="50" cy="65" rx="25" ry="20" fill="#FF8C42" stroke="#E67E22" stroke-width="2"/>
  
  <!-- Cat head -->
  <circle cx="50" cy="35" r="20" fill="#FF8C42" stroke="#E67E22" stroke-width="2"/>
  
  <!-- Cat ears -->
  <polygon points="35,20 40,10 45,20" fill="#FF8C42" stroke="#E67E22" stroke-width="2"/>
  <polygon points="55,20 60,10 65,20" fill="#FF8C42" stroke="#E67E22" stroke-width="2"/>
  
  <!-- Inner ears -->
  <polygon points="37,18 40,12 43,18" fill="#FFB74D"/>
  <polygon points="57,18 60,12 63,18" fill="#FFB74D"/>
  
  <!-- Eyes -->
  <circle cx="43" cy="32" r="3" fill="#2C3E50"/>
  <circle cx="57" cy="32" r="3" fill="#2C3E50"/>
  <circle cx="44" cy="31" r="1" fill="#FFFFFF"/>
  <circle cx="58" cy="31" r="1" fill="#FFFFFF"/>
  
  <!-- Nose -->
  <polygon points="50,38 47,42 53,42" fill="#E74C3C"/>
  
  <!-- Mouth -->
  <path d="M 50 42 Q 45 45 40 42" stroke="#2C3E50" stroke-width="2" fill="none"/>
  <path d="M 50 42 Q 55 45 60 42" stroke="#2C3E50" stroke-width="2" fill="none"/>
  
  <!-- Whiskers -->
  <line x1="25" y1="35" x2="35" y2="33" stroke="#2C3E50" stroke-width="1"/>
  <line x1="25" y1="40" x2="35" y2="40" stroke="#2C3E50" stroke-width="1"/>
  <line x1="65" y1="33" x2="75" y2="35" stroke="#2C3E50" stroke-width="1"/>
  <line x1="65" y1="40" x2="75" y2="40" stroke="#2C3E50" stroke-width="1"/>
  
  <!-- Tail -->
  <path d="M 75 65 Q 85 55 80 45" stroke="#E67E22" stroke-width="8" fill="none" stroke-linecap="round"/>
</svg>
