<svg width="100" height="100" viewBox="0 0 100 100" xmlns="http://www.w3.org/2000/svg">
  <!-- Dog body -->
  <ellipse cx="50" cy="65" rx="28" ry="22" fill="#8B4513" stroke="#654321" stroke-width="2"/>
  
  <!-- Dog head -->
  <ellipse cx="50" cy="35" rx="22" ry="18" fill="#8B4513" stroke="#654321" stroke-width="2"/>
  
  <!-- Dog ears -->
  <ellipse cx="35" cy="25" rx="8" ry="15" fill="#654321" stroke="#4A2C17" stroke-width="2"/>
  <ellipse cx="65" cy="25" rx="8" ry="15" fill="#654321" stroke="#4A2C17" stroke-width="2"/>
  
  <!-- Snout -->
  <ellipse cx="50" cy="45" rx="12" ry="8" fill="#D2B48C" stroke="#8B4513" stroke-width="2"/>
  
  <!-- Eyes -->
  <circle cx="43" cy="30" r="3" fill="#2C3E50"/>
  <circle cx="57" cy="30" r="3" fill="#2C3E50"/>
  <circle cx="44" cy="29" r="1" fill="#FFFFFF"/>
  <circle cx="58" cy="29" r="1" fill="#FFFFFF"/>
  
  <!-- Nose -->
  <ellipse cx="50" cy="42" rx="3" ry="2" fill="#2C3E50"/>
  
  <!-- Mouth -->
  <path d="M 50 45 Q 45 50 42 48" stroke="#2C3E50" stroke-width="2" fill="none"/>
  <path d="M 50 45 Q 55 50 58 48" stroke="#2C3E50" stroke-width="2" fill="none"/>
  
  <!-- Tongue -->
  <ellipse cx="50" cy="52" rx="4" ry="2" fill="#FF69B4"/>
  
  <!-- Tail -->
  <path d="M 78 65 Q 88 55 85 45 Q 82 35 88 30" stroke="#654321" stroke-width="6" fill="none" stroke-linecap="round"/>
  
  <!-- Spots -->
  <circle cx="40" cy="60" r="4" fill="#654321"/>
  <circle cx="60" cy="70" r="3" fill="#654321"/>
</svg>
