<svg width="100" height="100" viewBox="0 0 100 100" xmlns="http://www.w3.org/2000/svg">
  <!-- Rabbit body -->
  <ellipse cx="50" cy="70" rx="25" ry="20" fill="#F5F5DC" stroke="#D3D3D3" stroke-width="2"/>
  
  <!-- Rabbit head -->
  <ellipse cx="50" cy="45" rx="20" ry="18" fill="#F5F5DC" stroke="#D3D3D3" stroke-width="2"/>
  
  <!-- Long ears -->
  <ellipse cx="40" cy="20" rx="6" ry="20" fill="#F5F5DC" stroke="#D3D3D3" stroke-width="2"/>
  <ellipse cx="60" cy="20" rx="6" ry="20" fill="#F5F5DC" stroke="#D3D3D3" stroke-width="2"/>
  <ellipse cx="40" cy="20" rx="3" ry="15" fill="#FFB6C1"/>
  <ellipse cx="60" cy="20" rx="3" ry="15" fill="#FFB6C1"/>
  
  <!-- Eyes -->
  <circle cx="43" cy="40" r="3" fill="#2C3E50"/>
  <circle cx="57" cy="40" r="3" fill="#2C3E50"/>
  <circle cx="44" cy="39" r="1" fill="#FFFFFF"/>
  <circle cx="58" cy="39" r="1" fill="#FFFFFF"/>
  
  <!-- Nose -->
  <ellipse cx="50" cy="48" rx="2" ry="1.5" fill="#FF69B4"/>
  
  <!-- Mouth -->
  <path d="M 50 50 Q 45 53 42 51" stroke="#2C3E50" stroke-width="2" fill="none"/>
  <path d="M 50 50 Q 55 53 58 51" stroke="#2C3E50" stroke-width="2" fill="none"/>
  
  <!-- Whiskers -->
  <line x1="30" y1="45" x2="40" y2="43" stroke="#2C3E50" stroke-width="1"/>
  <line x1="30" y1="50" x2="40" y2="50" stroke="#2C3E50" stroke-width="1"/>
  <line x1="60" y1="43" x2="70" y2="45" stroke="#2C3E50" stroke-width="1"/>
  <line x1="60" y1="50" x2="70" y2="50" stroke="#2C3E50" stroke-width="1"/>
  
  <!-- Fluffy tail -->
  <circle cx="75" cy="75" r="8" fill="#F5F5DC" stroke="#D3D3D3" stroke-width="2"/>
  
  <!-- Front paws -->
  <ellipse cx="40" cy="85" rx="4" ry="8" fill="#F5F5DC" stroke="#D3D3D3" stroke-width="2"/>
  <ellipse cx="60" cy="85" rx="4" ry="8" fill="#F5F5DC" stroke="#D3D3D3" stroke-width="2"/>
</svg>
