<svg width="100" height="100" viewBox="0 0 100 100" xmlns="http://www.w3.org/2000/svg">
  <!-- Heart shape -->
  <path d="M50,85 C50,85 20,60 20,40 C20,25 30,15 45,15 C47,15 50,20 50,20 C50,20 53,15 55,15 C70,15 80,25 80,40 C80,60 50,85 50,85 Z" 
        fill="#FF69B4" 
        stroke="#E91E63" 
        stroke-width="2"/>
  
  <!-- Heart highlight -->
  <ellipse cx="40" cy="30" rx="8" ry="6" fill="#FFB6C1" opacity="0.7"/>
  
  <!-- Sparkles around heart -->
  <g fill="#FFD700" stroke="#FFA500" stroke-width="1">
    <polygon points="25,25 27,30 32,30 28,33 30,38 25,35 20,38 22,33 18,30 23,30"/>
    <polygon points="75,30 77,35 82,35 78,38 80,43 75,40 70,43 72,38 68,35 73,35"/>
    <polygon points="70,70 72,75 77,75 73,78 75,83 70,80 65,83 67,78 63,75 68,75"/>
    <polygon points="30,70 32,75 37,75 33,78 35,83 30,80 25,83 27,78 23,75 28,75"/>
  </g>
</svg>
