<svg width="400" height="480" viewBox="0 0 400 480" fill="none" xmlns="http://www.w3.org/2000/svg">
  <!-- Background -->
  <rect width="400" height="480" fill="transparent"/>
  
  <!-- T-shirt Shape (Back view) -->
  <path d="M80 32H320L340 52H360L370 62H380V72H370V448H30V72H20V62H30L40 52H60L80 32Z" 
        fill="white" 
        stroke="#E5E7EB" 
        stroke-width="2"
        filter="drop-shadow(0 10px 25px rgba(0,0,0,0.15))"/>
  
  <!-- Back Collar -->
  <path d="M175 32H225C225 40 215 48 200 48C185 48 175 40 175 32Z" 
        fill="none" 
        stroke="#D1D5DB" 
        stroke-width="1.5"/>
  
  <!-- Sleeves Shadow -->
  <path d="M30 72L40 52H60L80 32H90L70 82H30V72Z" fill="rgba(0,0,0,0.05)"/>
  <path d="M370 72L360 52H340L320 32H310L330 82H370V72Z" fill="rgba(0,0,0,0.05)"/>
  
  <!-- Design Area Indicator -->
  <rect x="140" y="160" width="120" height="160" 
        fill="#F9FAFB" 
        stroke="#D1D5DB" 
        stroke-width="2" 
        stroke-dasharray="5 5" 
        opacity="0.7"/>
  
  <!-- Design Area Label -->
  <text x="200" y="240" text-anchor="middle" fill="#9CA3AF" font-family="Arial" font-size="14" font-weight="500">
    Design Area
  </text>
</svg>
