<svg width="400" height="480" viewBox="0 0 400 480" fill="none" xmlns="http://www.w3.org/2000/svg">
  <defs>
    <!-- Gradient for depth -->
    <linearGradient id="shirtGradient" x1="0%" y1="0%" x2="100%" y2="100%">
      <stop offset="0%" style="stop-color:#ffffff;stop-opacity:1" />
      <stop offset="50%" style="stop-color:#f8f9fa;stop-opacity:1" />
      <stop offset="100%" style="stop-color:#e9ecef;stop-opacity:1" />
    </linearGradient>
    
    <!-- Shadow filter -->
    <filter id="shadow" x="-50%" y="-50%" width="200%" height="200%">
      <feDropShadow dx="0" dy="8" stdDeviation="12" flood-color="rgba(0,0,0,0.15)"/>
    </filter>
    
    <!-- Collar gradient -->
    <radialGradient id="collarGradient" cx="50%" cy="30%" r="70%">
      <stop offset="0%" style="stop-color:#ffffff;stop-opacity:1" />
      <stop offset="100%" style="stop-color:#f1f3f4;stop-opacity:1" />
    </radialGradient>
  </defs>
  
  <!-- Background -->
  <rect width="400" height="480" fill="#f8f9fa"/>
  
  <!-- Main T-shirt body -->
  <path d="M80 40 
           L320 40 
           L340 60 
           L360 60 
           L370 70 
           L380 80 
           L380 90 
           L370 100 
           L370 460 
           L30 460 
           L30 100 
           L20 90 
           L20 80 
           L30 70 
           L40 60 
           L60 60 
           L80 40 Z" 
        fill="url(#shirtGradient)" 
        stroke="#dee2e6" 
        stroke-width="1"
        filter="url(#shadow)"/>
  
  <!-- Collar -->
  <ellipse cx="200" cy="50" rx="25" ry="12" 
           fill="url(#collarGradient)" 
           stroke="#ced4da" 
           stroke-width="1"/>
  
  <!-- Inner collar -->
  <ellipse cx="200" cy="50" rx="18" ry="8" 
           fill="none" 
           stroke="#adb5bd" 
           stroke-width="0.5"/>
  
  <!-- Left sleeve shadow -->
  <path d="M30 100 L40 60 L60 60 L80 40 L90 45 L70 90 L30 100 Z" 
        fill="rgba(0,0,0,0.08)"/>
  
  <!-- Right sleeve shadow -->
  <path d="M370 100 L360 60 L340 60 L320 40 L310 45 L330 90 L370 100 Z" 
        fill="rgba(0,0,0,0.08)"/>
  
  <!-- Subtle body contour -->
  <path d="M80 40 L90 50 L90 450 L80 460" 
        fill="none" 
        stroke="rgba(0,0,0,0.05)" 
        stroke-width="1"/>
  <path d="M320 40 L310 50 L310 450 L320 460" 
        fill="none" 
        stroke="rgba(0,0,0,0.05)" 
        stroke-width="1"/>
  
  <!-- Design area outline (subtle) -->
  <rect x="140" y="160" width="120" height="140" 
        fill="none" 
        stroke="#3b82f6" 
        stroke-width="1" 
        stroke-dasharray="3 3" 
        opacity="0.3"/>
</svg>
